<svg width="600" height="400" viewBox="0 0 600 400" fill="none" xmlns="http://www.w3.org/2000/svg">
<rect width="600" height="400" rx="40" fill="white"/>
<path d="M237 270H202.8L145.6 183.4V270H111.4V129.6H145.6L202.8 216.6V129.6H237V270ZM346.791 198C354.924 199.733 361.457 203.8 366.391 210.2C371.324 216.467 373.791 223.667 373.791 231.8C373.791 243.533 369.657 252.867 361.391 259.8C353.257 266.6 341.857 270 327.191 270H261.791V129.6H324.991C339.257 129.6 350.391 132.867 358.391 139.4C366.524 145.933 370.591 154.8 370.591 166C370.591 174.267 368.391 181.133 363.991 186.6C359.724 192.067 353.991 195.867 346.791 198ZM295.991 186.4H318.391C323.991 186.4 328.257 185.2 331.191 182.8C334.257 180.267 335.791 176.6 335.791 171.8C335.791 167 334.257 163.333 331.191 160.8C328.257 158.267 323.991 157 318.391 157H295.991V186.4ZM321.191 242.4C326.924 242.4 331.324 241.133 334.391 238.6C337.591 235.933 339.191 232.133 339.191 227.2C339.191 222.267 337.524 218.4 334.191 215.6C330.991 212.8 326.524 211.4 320.791 211.4H295.991V242.4H321.191ZM494.627 129.6V157H457.427V270H423.227V157H386.027V129.6H494.627Z" fill="black"/>
</svg>
